<svg width="11" height="11" viewBox="0 0 11 11" fill="none" xmlns="http://www.w3.org/2000/svg">
<g clip-path="url(#clip0_14_13437)">
<path d="M8.70831 7.79163V8.70829H3.20831V7.79163C3.20831 7.79163 3.20831 5.95829 5.95831 5.95829C8.70831 5.95829 8.70831 7.79163 8.70831 7.79163ZM7.33331 3.66663C7.33331 3.39468 7.25267 3.12883 7.10158 2.90272C6.9505 2.6766 6.73575 2.50036 6.4845 2.39629C6.23325 2.29222 5.95679 2.26499 5.69006 2.31805C5.42334 2.3711 5.17834 2.50206 4.98604 2.69435C4.79374 2.88665 4.66279 3.13165 4.60973 3.39838C4.55668 3.6651 4.58391 3.94157 4.68798 4.19282C4.79205 4.44406 4.96829 4.65881 5.1944 4.8099C5.42052 4.96098 5.68636 5.04163 5.95831 5.04163C6.32299 5.04163 6.67272 4.89676 6.93058 4.6389C7.18845 4.38104 7.33331 4.0313 7.33331 3.66663ZM8.79998 5.98579C9.05052 6.21693 9.25251 6.49566 9.39415 6.80571C9.5358 7.11576 9.61427 7.45092 9.62498 7.79163V8.70829H11V7.79163C11 7.79163 11 6.21038 8.79998 5.98579ZM8.24998 2.29163C8.1115 2.29171 7.97388 2.31336 7.84206 2.35579C8.11021 2.74032 8.25398 3.19784 8.25398 3.66663C8.25398 4.13542 8.11021 4.59293 7.84206 4.97746C7.97388 5.0199 8.1115 5.04154 8.24998 5.04163C8.61465 5.04163 8.96439 4.89676 9.22225 4.6389C9.48011 4.38104 9.62498 4.0313 9.62498 3.66663C9.62498 3.30195 9.48011 2.95222 9.22225 2.69435C8.96439 2.43649 8.61465 2.29163 8.24998 2.29163ZM3.36415 4.08829L3.89581 4.73454L1.71873 6.91163L0.458313 5.53663L0.98998 5.00496L1.71873 5.72913L3.36415 4.08829Z" fill="white"/>
</g>
<defs>
<clipPath id="clip0_14_13437">
<rect width="11" height="11" fill="white"/>
</clipPath>
</defs>
</svg>
