<svg width="20" height="20" viewBox="0 0 20 20" fill="none" xmlns="http://www.w3.org/2000/svg">
<path d="M9.08301 14.5833H10.9163V10.9166H14.583V9.08325H10.9163V5.41658H9.08301V9.08325H5.41634V10.9166H9.08301V14.5833ZM9.99967 19.1666C8.73162 19.1666 7.53995 18.9258 6.42467 18.4443C5.3094 17.9633 4.33926 17.3103 3.51426 16.4853C2.68926 15.6603 2.03629 14.6902 1.55534 13.5749C1.07379 12.4596 0.833008 11.268 0.833008 9.99992C0.833008 8.73186 1.07379 7.5402 1.55534 6.42492C2.03629 5.30964 2.68926 4.3395 3.51426 3.5145C4.33926 2.6895 5.3094 2.03622 6.42467 1.55467C7.53995 1.07372 8.73162 0.833252 9.99967 0.833252C11.2677 0.833252 12.4594 1.07372 13.5747 1.55467C14.69 2.03622 15.6601 2.6895 16.4851 3.5145C17.3101 4.3395 17.9631 5.30964 18.444 6.42492C18.9256 7.5402 19.1663 8.73186 19.1663 9.99992C19.1663 11.268 18.9256 12.4596 18.444 13.5749C17.9631 14.6902 17.3101 15.6603 16.4851 16.4853C15.6601 17.3103 14.69 17.9633 13.5747 18.4443C12.4594 18.9258 11.2677 19.1666 9.99967 19.1666Z" fill="#13882D"/>
</svg>
