<svg width="12" height="7" viewBox="0 0 12 7" fill="none" xmlns="http://www.w3.org/2000/svg">
<path d="M6.25 3.47813C6.49167 3.24479 6.67717 2.97865 6.8065 2.67969C6.9355 2.38073 7 2.07083 7 1.75C7 1.42917 6.9355 1.11927 6.8065 0.820313C6.67717 0.521354 6.49167 0.255208 6.25 0.0218751C6.75 0.0802084 7.16667 0.273437 7.5 0.601562C7.83333 0.929688 8 1.3125 8 1.75C8 2.1875 7.83333 2.57031 7.5 2.89844C7.16667 3.22656 6.75 3.41979 6.25 3.47813ZM8.7625 7C8.8375 6.94896 8.89583 6.88508 8.9375 6.80838C8.97917 6.73196 9 6.64635 9 6.55156V5.6875C9 5.425 8.93333 5.17533 8.8 4.9385C8.66667 4.70138 8.49167 4.49167 8.275 4.30938C8.7 4.44063 9.09383 4.61008 9.4565 4.81775C9.81883 5.02571 10 5.31563 10 5.6875V6.5625C10 6.68646 9.952 6.79029 9.856 6.874C9.76033 6.958 9.64167 7 9.5 7H8.7625ZM10.5 3.9375C10.3583 3.9375 10.2397 3.8955 10.144 3.8115C10.048 3.72779 10 3.62396 10 3.5V3.0625H9.5C9.35833 3.0625 9.23967 3.0205 9.144 2.9365C9.048 2.85279 9 2.74896 9 2.625C9 2.50104 9.048 2.39706 9.144 2.31306C9.23967 2.22935 9.35833 2.1875 9.5 2.1875H10V1.75C10 1.62604 10.048 1.52206 10.144 1.43806C10.2397 1.35435 10.3583 1.3125 10.5 1.3125C10.6417 1.3125 10.7603 1.35435 10.856 1.43806C10.952 1.52206 11 1.62604 11 1.75V2.1875H11.5C11.6417 2.1875 11.7603 2.22935 11.856 2.31306C11.952 2.39706 12 2.50104 12 2.625C12 2.74896 11.952 2.85279 11.856 2.9365C11.7603 3.0205 11.6417 3.0625 11.5 3.0625H11V3.5C11 3.62396 10.952 3.72779 10.856 3.8115C10.7603 3.8955 10.6417 3.9375 10.5 3.9375ZM4 3.5C3.45 3.5 2.97917 3.32865 2.5875 2.98594C2.19583 2.64323 2 2.23125 2 1.75C2 1.26875 2.19583 0.856771 2.5875 0.514063C2.97917 0.171354 3.45 0 4 0C4.55 0 5.02083 0.171354 5.4125 0.514063C5.80417 0.856771 6 1.26875 6 1.75C6 2.23125 5.80417 2.64323 5.4125 2.98594C5.02083 3.32865 4.55 3.5 4 3.5ZM0.5 7C0.358333 7 0.239667 6.958 0.144 6.874C0.048 6.79029 0 6.68646 0 6.5625V5.775C0 5.52708 0.073 5.29915 0.219 5.09119C0.364667 4.88352 0.558333 4.725 0.8 4.61563C1.31667 4.38958 1.84167 4.21998 2.375 4.10681C2.90833 3.99394 3.45 3.9375 4 3.9375C4.55 3.9375 5.09167 3.99394 5.625 4.10681C6.15833 4.21998 6.68333 4.38958 7.2 4.61563C7.44167 4.725 7.63533 4.88352 7.781 5.09119C7.927 5.29915 8 5.52708 8 5.775V6.5625C8 6.68646 7.95217 6.79029 7.8565 6.874C7.7605 6.958 7.64167 7 7.5 7H0.5Z" fill="white"/>
</svg>
