<svg width="21" height="20" viewBox="0 0 21 20" fill="none" xmlns="http://www.w3.org/2000/svg">
<path d="M10.0142 -0.000976562C4.49117 -0.000976562 0.0141602 4.47602 0.0141602 9.99902C0.0141602 15.522 4.49117 19.999 10.0142 19.999C15.5372 19.999 20.0142 15.522 20.0142 9.99902C20.0142 4.47602 15.5372 -0.000976562 10.0142 -0.000976562ZM10.0142 1.99902C14.4322 1.99902 18.0142 5.58102 18.0142 9.99902C18.0142 14.417 14.4322 17.999 10.0142 17.999C5.59617 17.999 2.01416 14.417 2.01416 9.99902C2.01416 5.58102 5.59617 1.99902 10.0142 1.99902ZM5.70216 6.06102C5.45916 6.14201 5.23116 6.31501 5.10816 6.56101C4.86116 7.05501 5.08318 7.65802 5.57618 7.90502L6.01417 8.12402V8.99902C6.01417 9.55102 6.46217 9.99902 7.01417 9.99902C7.56617 9.99902 8.01417 9.55102 8.01417 8.99902C8.38117 8.99202 8.74518 8.78602 8.92018 8.43702C9.16718 7.94302 8.94516 7.34001 8.45216 7.09301L6.45216 6.09301C6.20516 5.96901 5.94416 5.98102 5.70216 6.06102ZM14.3262 6.06102C14.0842 5.98102 13.8242 5.96901 13.5762 6.09301L11.5762 7.09301C11.0832 7.34001 10.8612 7.94302 11.1082 8.43702C11.2832 8.78602 11.6472 8.99202 12.0142 8.99902C12.0142 9.55102 12.4622 9.99902 13.0142 9.99902C13.5662 9.99902 14.0142 9.55102 14.0142 8.99902V8.12402L14.4522 7.90502C14.9452 7.65802 15.1672 7.05501 14.9202 6.56101C14.7972 6.31501 14.5692 6.14201 14.3262 6.06102ZM10.0142 11.843C8.67217 11.843 7.41417 12.35 6.48316 13.28C6.09216 13.671 6.09216 14.327 6.48316 14.718C6.87317 15.108 7.49817 15.108 7.88917 14.718C8.44917 14.159 9.20717 13.843 10.0142 13.843C10.8182 13.843 11.5802 14.131 12.1392 14.687C12.5312 15.076 13.1562 15.078 13.5452 14.687C13.9352 14.295 13.9372 13.67 13.5452 13.28C12.6152 12.356 11.3522 11.843 10.0142 11.843Z" fill="#1A202C"/>
</svg>
