<svg width="26" height="26" viewBox="0 0 26 26" fill="none" xmlns="http://www.w3.org/2000/svg">
<circle cx="13" cy="13" r="13" fill="#17AB37"/>
<path d="M13.5455 13.875C11.725 13.875 8.09091 14.7894 8.09091 16.625V18H19V16.625C19 14.7894 15.3659 13.875 13.5455 13.875ZM13.5455 12.5C14.2688 12.5 14.9625 12.2103 15.4739 11.6945C15.9854 11.1788 16.2727 10.4793 16.2727 9.75C16.2727 9.02065 15.9854 8.32118 15.4739 7.80546C14.9625 7.28973 14.2688 7 13.5455 7C12.8221 7 12.1284 7.28973 11.617 7.80546C11.1055 8.32118 10.8182 9.02065 10.8182 9.75C10.8182 10.4793 11.1055 11.1788 11.617 11.6945C12.1284 12.2103 12.8221 12.5 13.5455 12.5ZM6.72727 13.38L8.39773 14.4044L7.95455 12.4725L9.45455 11.18L7.48409 11.0081L6.72727 9.19313L5.95682 11.0081L4 11.18L5.48636 12.4725L5.02273 14.4044L6.72727 13.38Z" fill="white"/>
</svg>
