<svg width="20" height="19" viewBox="0 0 20 19" fill="none" xmlns="http://www.w3.org/2000/svg">
<path d="M12.5 5.66667C12.5 4.48333 12.0833 3.39167 11.3916 2.53333C11.7416 2.41667 12.1083 2.33333 12.5 2.33333C14.3416 2.33333 15.8333 3.825 15.8333 5.66667C15.8333 7.50833 14.3416 9 12.5 9H12.35L11.7083 8.35833C12.2083 7.575 12.5 6.65 12.5 5.66667ZM19.025 15.6667H19.1666V13.1667C19.1666 11.35 16.1833 10.275 13.8833 9.94167C14.8 10.5667 15.5083 11.3667 15.7416 12.3917L19.025 15.6667ZM6.03328 2.675C6.65717 2.36788 7.36154 2.26378 8.0476 2.3773C8.73365 2.49082 9.36695 2.81626 9.85865 3.30796C10.3504 3.79967 10.6758 4.43297 10.7893 5.11902C10.9028 5.80507 10.7987 6.50945 10.4916 7.13333L6.03328 2.675ZM7.64162 9H7.49995C5.65828 9 4.16662 7.50833 4.16662 5.66667V5.525L0.574951 1.925L1.74995 0.75L18.25 17.25L17.0749 18.425L14.1666 15.525V15.6667H0.833284V13.1667C0.833284 10.95 5.27495 9.83333 7.49995 9.83333C7.80828 9.83333 8.16662 9.85833 8.54162 9.9L7.64162 9Z" fill="#17AB37"/>
</svg>
