<svg width="26" height="26" viewBox="0 0 26 26" fill="none" xmlns="http://www.w3.org/2000/svg">
<circle cx="13" cy="13" r="13" fill="#17AB37"/>
<path d="M13 6.33325C13.884 6.33325 14.7319 6.68444 15.357 7.30956C15.9821 7.93468 16.3333 8.78253 16.3333 9.66659C16.3333 11.2916 15.1667 12.6499 13.625 12.9416L9.72498 9.04159C9.87103 8.27989 10.2779 7.59286 10.8755 7.09859C11.4732 6.60433 12.2244 6.33371 13 6.33325ZM13.2333 14.6666L18.2333 19.6666L19.6666 21.0999L18.6083 22.1666L16.1083 19.6666H6.33332V17.9999C6.33332 16.4666 8.41665 15.1749 11.225 14.7833L5.31665 8.87492L6.37498 7.81659L13.2333 14.6666ZM19.6666 17.9999V18.9833L15.6167 14.9333C18 15.4416 19.6666 16.6249 19.6666 17.9999Z" fill="white"/>
</svg>
