<svg width="20" height="18" viewBox="0 0 20 18" fill="none" xmlns="http://www.w3.org/2000/svg">
<path d="M9.99967 14.0417C11.1455 14.0417 12.1196 13.6408 12.922 12.839C13.7238 12.0366 14.1247 11.0625 14.1247 9.91667C14.1247 8.77083 13.7238 7.79672 12.922 6.99433C12.1196 6.19256 11.1455 5.79167 9.99967 5.79167C8.85384 5.79167 7.87973 6.19256 7.07734 6.99433C6.27556 7.79672 5.87467 8.77083 5.87467 9.91667C5.87467 11.0625 6.27556 12.0366 7.07734 12.839C7.87973 13.6408 8.85384 14.0417 9.99967 14.0417ZM9.99967 12.2083C9.35801 12.2083 8.81565 11.9868 8.37259 11.5437C7.92954 11.1007 7.70801 10.5583 7.70801 9.91667C7.70801 9.275 7.92954 8.73264 8.37259 8.28958C8.81565 7.84653 9.35801 7.625 9.99967 7.625C10.6413 7.625 11.1837 7.84653 11.6268 8.28958C12.0698 8.73264 12.2913 9.275 12.2913 9.91667C12.2913 10.5583 12.0698 11.1007 11.6268 11.5437C11.1837 11.9868 10.6413 12.2083 9.99967 12.2083ZM2.66634 17.25C2.16217 17.25 1.73073 17.0706 1.37201 16.7119C1.01267 16.3526 0.833008 15.9208 0.833008 15.4167V4.41667C0.833008 3.9125 1.01267 3.48106 1.37201 3.12233C1.73073 2.763 2.16217 2.58333 2.66634 2.58333H5.55384L7.24967 0.75H12.7497L14.4455 2.58333H17.333C17.8372 2.58333 18.2689 2.763 18.6283 3.12233C18.987 3.48106 19.1663 3.9125 19.1663 4.41667V15.4167C19.1663 15.9208 18.987 16.3526 18.6283 16.7119C18.2689 17.0706 17.8372 17.25 17.333 17.25H2.66634ZM17.333 15.4167V4.41667H13.6205L11.9476 2.58333H8.05176L6.37884 4.41667H2.66634V15.4167H17.333Z" fill="#1353D0"/>
</svg>
