<svg width="24" height="24" viewBox="0 0 24 24" fill="none" xmlns="http://www.w3.org/2000/svg">
<path d="M8.99879 2.01416C8.73379 2.01416 8.4988 2.10817 8.3108 2.29517L6.59278 4.01416C6.30578 4.01416 5.99879 4.01416 5.99879 4.01416C3.78978 4.01416 1.99878 5.80516 1.99878 8.01416V17.0142C1.99878 19.2232 3.78978 21.0142 5.99879 21.0142H17.9988C20.2078 21.0142 21.9988 19.2232 21.9988 17.0142V8.01416C21.9988 5.80516 20.2078 4.01416 17.9988 4.01416H17.4368L15.7178 2.29517C15.5298 2.10817 15.2638 2.01416 14.9988 2.01416H8.99879ZM9.43678 4.01416H14.5928L16.3108 5.73315C16.4988 5.92015 16.7338 6.01416 16.9988 6.01416H17.9988C19.1038 6.01416 19.9988 6.90916 19.9988 8.01416V17.0142C19.9988 18.1192 19.1038 19.0142 17.9988 19.0142H5.99879C4.89378 19.0142 3.99878 18.1192 3.99878 17.0142V8.01416C3.99878 6.90916 4.89378 6.01416 5.99879 6.01416H6.99879C7.26379 6.01416 7.52978 5.92015 7.71778 5.73315L9.43678 4.01416ZM11.9988 7.01416C9.23779 7.01416 6.99879 9.25316 6.99879 12.0142C6.99879 14.7752 9.23779 17.0142 11.9988 17.0142C14.7598 17.0142 16.9988 14.7752 16.9988 12.0142C16.9988 9.25316 14.7598 7.01416 11.9988 7.01416ZM17.9988 7.01416C17.4468 7.01416 16.9988 7.46216 16.9988 8.01416C16.9988 8.56616 17.4468 9.01416 17.9988 9.01416C18.5508 9.01416 18.9988 8.56616 18.9988 8.01416C18.9988 7.46216 18.5508 7.01416 17.9988 7.01416ZM11.9988 9.01416C13.6558 9.01416 14.9988 10.3572 14.9988 12.0142C14.9988 13.6712 13.6558 15.0142 11.9988 15.0142C10.3418 15.0142 8.99879 13.6712 8.99879 12.0142C8.99879 10.3572 10.3418 9.01416 11.9988 9.01416Z" fill="#1A202C"/>
</svg>
