<svg width="22" height="22" viewBox="0 0 22 22" fill="none" xmlns="http://www.w3.org/2000/svg">
<path d="M5.85449 8.75216V16.9584H15.0087L17.7712 10.5126V8.29175H11.7045L12.3545 4.60841V3.95841L11.2712 2.87508L5.85449 8.75216ZM11.0003 21.8334C9.50171 21.8334 8.09338 21.5489 6.77533 20.9797C5.45727 20.4114 4.31074 19.6397 3.33574 18.6647C2.36074 17.6897 1.58905 16.5431 1.02066 15.2251C0.451548 13.907 0.166992 12.4987 0.166992 11.0001C0.166992 9.50147 0.451548 8.09314 1.02066 6.77508C1.58905 5.45703 2.36074 4.3105 3.33574 3.3355C4.31074 2.3605 5.45727 1.58844 6.77533 1.01933C8.09338 0.450942 9.50171 0.166748 11.0003 0.166748C12.4989 0.166748 13.9073 0.450942 15.2253 1.01933C16.5434 1.58844 17.6899 2.3605 18.6649 3.3355C19.6399 4.3105 20.4116 5.45703 20.98 6.77508C21.5491 8.09314 21.8337 9.50147 21.8337 11.0001C21.8337 12.4987 21.5491 13.907 20.98 15.2251C20.4116 16.5431 19.6399 17.6897 18.6649 18.6647C17.6899 19.6397 16.5434 20.4114 15.2253 20.9797C13.9073 21.5489 12.4989 21.8334 11.0003 21.8334ZM11.0003 19.6667C13.4017 19.6667 15.4467 18.8228 17.1352 17.135C18.8231 15.4464 19.667 13.4015 19.667 11.0001C19.667 8.59869 18.8231 6.55372 17.1352 4.86516C15.4467 3.17733 13.4017 2.33341 11.0003 2.33341C8.59894 2.33341 6.55432 3.17733 4.86649 4.86516C3.17794 6.55372 2.33366 8.59869 2.33366 11.0001C2.33366 13.4015 3.17794 15.4464 4.86649 17.135C6.55432 18.8228 8.59894 19.6667 11.0003 19.6667Z" fill="#E42626"/>
</svg>
