<svg width="36" height="36" viewBox="0 0 36 36" fill="none" xmlns="http://www.w3.org/2000/svg">
<path fill-rule="evenodd" clip-rule="evenodd" d="M6.35786 5.90044C6.85516 5.40314 7.74207 5.48377 8.33883 6.08053L29.9194 27.6611C30.5161 28.2578 30.5968 29.1447 30.0995 29.642C29.6022 30.1393 28.7153 30.0587 28.1185 29.4619L6.53795 7.8814C5.94119 7.28464 5.86057 6.39774 6.35786 5.90044Z" fill="#4A5568"/>
<path fill-rule="evenodd" clip-rule="evenodd" d="M29.6421 5.90044C30.1394 6.39774 30.0588 7.28464 29.462 7.8814L7.88151 29.4619C7.28475 30.0587 6.39784 30.1393 5.90054 29.642C5.40325 29.1447 5.48387 28.2578 6.08063 27.6611L27.6612 6.08053C28.2579 5.48377 29.1448 5.40314 29.6421 5.90044Z" fill="#4A5568"/>
</svg>
