<svg width="9" height="9" viewBox="0 0 9 9" fill="none" xmlns="http://www.w3.org/2000/svg">
<path d="M8.58743 7.72457C8.64424 7.78118 8.68932 7.84845 8.72008 7.92252C8.75083 7.99659 8.76666 8.07601 8.76666 8.15621C8.76666 8.23641 8.75083 8.31582 8.72008 8.38989C8.68932 8.46397 8.64424 8.53124 8.58743 8.58785C8.47244 8.70135 8.31737 8.76499 8.15579 8.76499C7.99422 8.76499 7.83915 8.70135 7.72415 8.58785L4.49954 5.36324L1.27493 8.58785C1.15994 8.70135 1.00487 8.76499 0.843293 8.76499C0.681718 8.76499 0.526646 8.70135 0.411653 8.58785C0.354843 8.53124 0.309767 8.46397 0.279011 8.38989C0.248254 8.31582 0.232422 8.23641 0.232422 8.15621C0.232422 8.07601 0.248254 7.99659 0.279011 7.92252C0.309767 7.84845 0.354843 7.78118 0.411653 7.72457L3.63626 4.49996L0.411653 1.27535C0.297174 1.16087 0.232861 1.00561 0.232861 0.843708C0.232861 0.763545 0.24865 0.684167 0.279327 0.610106C0.310005 0.536045 0.354969 0.468752 0.411653 0.412068C0.468336 0.355384 0.53563 0.31042 0.609691 0.279743C0.683752 0.249066 0.76313 0.233276 0.843293 0.233276C1.00519 0.233276 1.16046 0.29759 1.27493 0.412068L4.49954 3.63668L7.72415 0.412068C7.83863 0.29759 7.9939 0.233276 8.15579 0.233276C8.31769 0.233276 8.47296 0.29759 8.58743 0.412068C8.70191 0.526546 8.76622 0.681812 8.76622 0.843708C8.76622 1.00561 8.70191 1.16087 8.58743 1.27535L5.36282 4.49996L8.58743 7.72457Z" fill="black"/>
</svg>
