<svg width="24" height="24" viewBox="0 0 24 24" fill="none" xmlns="http://www.w3.org/2000/svg">
<path fill-rule="evenodd" clip-rule="evenodd" d="M1.35786 0.900438C1.85516 0.40314 2.74207 0.483768 3.33883 1.08053L24.9194 22.6611C25.5161 23.2578 25.5968 24.1447 25.0995 24.642C24.6022 25.1393 23.7153 25.0587 23.1185 24.4619L1.53795 2.8814C0.941193 2.28464 0.860565 1.39774 1.35786 0.900438Z" fill="#4A5568"/>
<path fill-rule="evenodd" clip-rule="evenodd" d="M24.6421 0.900438C25.1394 1.39774 25.0588 2.28464 24.462 2.8814L2.88151 24.4619C2.28475 25.0587 1.39784 25.1393 0.900544 24.642C0.403246 24.1447 0.483874 23.2578 1.08063 22.6611L22.6612 1.08053C23.2579 0.483768 24.1448 0.40314 24.6421 0.900438Z" fill="#4A5568"/>
</svg>
