<svg width="15" height="14" viewBox="0 0 15 14" fill="none" xmlns="http://www.w3.org/2000/svg">
<path d="M7.51055 0C6.52703 0 5.55313 0.181052 4.64447 0.53282C3.73581 0.884587 2.91018 1.40018 2.21472 2.05016C0.810174 3.36286 0.02111 5.14326 0.02111 6.99969C0.0145626 8.61601 0.61337 10.1835 1.71372 11.4305L0.215836 12.8304C0.111914 12.9289 0.0415158 13.0539 0.0135247 13.1896C-0.0144664 13.3254 0.00120348 13.4659 0.0585572 13.5934C0.120763 13.7193 0.221606 13.8252 0.348284 13.8975C0.474962 13.9697 0.621764 14.0052 0.770054 13.9994H7.51055C9.49688 13.9994 11.4018 13.2619 12.8064 11.9492C14.2109 10.6365 15 8.85612 15 6.99969C15 5.14326 14.2109 3.36286 12.8064 2.05016C11.4018 0.737465 9.49688 0 7.51055 0ZM7.51055 12.5994H2.57501L3.27153 11.9485C3.41102 11.8173 3.48932 11.6399 3.48932 11.455C3.48932 11.2701 3.41102 11.0927 3.27153 10.9615C2.29085 10.046 1.68015 8.84099 1.54348 7.55182C1.40681 6.26266 1.75263 4.96908 2.52201 3.89149C3.29138 2.8139 4.43673 2.01896 5.7629 1.64211C7.08908 1.26526 8.51403 1.3298 9.795 1.82476C11.076 2.31971 12.1337 3.21445 12.7879 4.35653C13.4422 5.49861 13.6526 6.81738 13.3831 8.08815C13.1137 9.35892 12.3812 10.5031 11.3104 11.3257C10.2395 12.1483 8.89667 12.5984 7.51055 12.5994Z" fill="#4E5D78"/>
</svg>
