<svg width="21" height="20" viewBox="0 0 21 20" fill="none" xmlns="http://www.w3.org/2000/svg">
<path d="M10.0142 -0.000976562C4.49116 -0.000976562 0.0141602 4.47602 0.0141602 9.99902C0.0141602 14.244 2.68115 17.984 6.60815 19.405C7.69015 19.797 8.84016 19.999 10.0142 19.999C15.5372 19.999 20.0142 15.522 20.0142 9.99902C20.0142 4.47602 15.5372 -0.000976562 10.0142 -0.000976562ZM10.0142 1.99902C12.6142 1.99902 14.8832 3.26302 16.3022 5.05302C16.1112 5.00502 15.9772 4.99902 15.7642 4.99902H12.8892C12.0952 4.99902 11.3332 5.39202 10.8592 5.99402L9.16615 6.00203C8.67615 5.35003 7.93316 4.99902 7.13916 4.99902C6.77816 4.99902 4.62516 4.99902 4.26416 4.99902C4.05116 4.99902 3.91115 5.01902 3.72015 5.06702C5.14715 3.23402 7.41416 1.99902 10.0142 1.99902ZM9.57616 7.99902H10.4522L10.9202 9.12402C11.3492 10.185 12.5572 10.999 13.7022 10.999H15.3892C16.3732 10.999 17.3072 10.266 17.5452 9.31102L17.8182 8.25403C17.9422 8.76203 18.0142 9.50202 18.0142 9.99902C18.0142 14.417 14.4322 17.999 10.0142 17.999C9.07316 17.999 8.16017 17.843 7.29517 17.53C4.15417 16.393 2.01416 13.395 2.01416 9.99902C2.01416 9.50202 2.06015 8.74203 2.20515 8.25603L2.48315 9.31102C2.72115 10.266 3.65516 10.999 4.63916 10.999H6.32616C7.47116 10.999 8.67915 10.185 9.10815 9.12402L9.57616 7.99902ZM7.01416 12.843C6.75816 12.843 6.49017 12.929 6.29517 13.124C5.90517 13.515 5.90517 14.14 6.29517 14.53C7.22617 15.46 8.48416 15.999 9.82616 15.999C11.1642 15.999 12.4282 15.455 13.3582 14.53C13.7492 14.141 13.7472 13.516 13.3582 13.124C12.9682 12.732 12.3432 12.735 11.9522 13.124C11.3922 13.68 10.6312 13.999 9.82616 13.999C9.02016 13.999 8.29215 13.683 7.73315 13.124C7.53715 12.929 7.27016 12.843 7.01416 12.843Z" fill="#1A202C"/>
</svg>
