<svg width="26" height="26" viewBox="0 0 26 26" fill="none" xmlns="http://www.w3.org/2000/svg">
<circle cx="13" cy="13" r="13" fill="#17AB37"/>
<path d="M14.0001 14.3334C15.7801 14.3334 19.3334 15.2201 19.3334 17.0001V18.3334H8.66672V17.0001C8.66672 15.2201 12.2201 14.3334 14.0001 14.3334ZM14.0001 13.0001C13.2928 13.0001 12.6145 12.7191 12.1144 12.219C11.6143 11.7189 11.3334 11.0407 11.3334 10.3334C11.3334 9.62617 11.6143 8.94789 12.1144 8.4478C12.6145 7.9477 13.2928 7.66675 14.0001 7.66675C14.7073 7.66675 15.3856 7.9477 15.8857 8.4478C16.3858 8.94789 16.6667 9.62617 16.6667 10.3334C16.6667 11.0407 16.3858 11.7189 15.8857 12.219C15.3856 12.7191 14.7073 13.0001 14.0001 13.0001ZM7.33339 11.3934L8.74672 9.97341L9.69339 10.9201L8.27339 12.3334L9.69339 13.7467L8.74672 14.6934L7.33339 13.2734L5.92006 14.6934L4.97339 13.7467L6.39339 12.3334L4.97339 10.9201L5.92006 9.97341L7.33339 11.3934Z" fill="white"/>
</svg>
