<svg width="86" height="81" viewBox="0 0 86 81" fill="none" xmlns="http://www.w3.org/2000/svg">
<path fill-rule="evenodd" clip-rule="evenodd" d="M7.22905 49.6568C7.61041 48.1314 9.1876 46.8947 10.7572 46.8947H74.7135C76.2807 46.8947 77.8596 48.1287 78.2417 49.6568L85.3869 78.2379C85.7683 79.7634 84.8186 81 83.2426 81H2.22811C0.662465 81 -0.29825 79.766 0.0837785 78.2379L7.22905 49.6568Z" fill="#595959"/>
<path fill-rule="evenodd" clip-rule="evenodd" d="M12.1951 51.1209H73.306L78.2498 73.953H7.21997L12.1951 51.1209Z" fill="#B4FBCC"/>
<path fill-rule="evenodd" clip-rule="evenodd" d="M24.3978 54.0582H59.6655L63.3474 68.2687H20.7159L24.3978 54.0582Z" fill="#72BC83"/>
<path fill-rule="evenodd" clip-rule="evenodd" d="M65.3426 29.8421V12.7895H19.8689V29.8421C19.8689 32.1966 30.0485 34.1052 42.6057 34.1052C55.1629 34.1052 65.3426 32.1966 65.3426 29.8421Z" fill="#81C193"/>
<path fill-rule="evenodd" clip-rule="evenodd" d="M8.50073 12.6573L43.6263 0L78.1607 12.6573L43.6263 23.1646L8.50073 12.6573Z" fill="#016918"/>
<path d="M28.3483 12.4939L27.8041 9.70438L17.0268 13.3238V37.0838H19.8689V15.6643L28.3483 12.4939Z" fill="#F1BE27"/>
<path d="M17.2184 35.002L13.1641 42.9812L15.6979 44.2687L19.7521 36.2895L17.2184 35.002Z" fill="#FF462B"/>
<path d="M17.3138 36.4201L21.0241 43.5879L23.5479 42.282L19.8376 35.1142L17.3138 36.4201Z" fill="#FF462B"/>
<path d="M17.1917 36.3705L17.1846 44.8953L20.0267 44.8968L20.0338 36.3719L17.1917 36.3705Z" fill="#FF462B"/>
</svg>
