<svg width="14" height="4" viewBox="0 0 14 4" fill="none" xmlns="http://www.w3.org/2000/svg">
<path d="M1.61538 3.83147C1.18696 3.83147 0.776079 3.66355 0.473135 3.36465C0.170192 3.06574 0 2.66035 0 2.23763C0 1.81492 0.170192 1.40952 0.473135 1.11062C0.776079 0.81172 1.18696 0.643799 1.61538 0.643799C2.04381 0.643799 2.45469 0.81172 2.75763 1.11062C3.06058 1.40952 3.23077 1.81492 3.23077 2.23763C3.23077 2.66035 3.06058 3.06574 2.75763 3.36465C2.45469 3.66355 2.04381 3.83147 1.61538 3.83147ZM7 3.83147C6.57157 3.83147 6.16069 3.66355 5.85775 3.36465C5.55481 3.06574 5.38462 2.66035 5.38462 2.23763C5.38462 1.81492 5.55481 1.40952 5.85775 1.11062C6.16069 0.81172 6.57157 0.643799 7 0.643799C7.42843 0.643799 7.83931 0.81172 8.14225 1.11062C8.44519 1.40952 8.61539 1.81492 8.61539 2.23763C8.61539 2.66035 8.44519 3.06574 8.14225 3.36465C7.83931 3.66355 7.42843 3.83147 7 3.83147ZM12.3846 3.83147C11.9562 3.83147 11.5453 3.66355 11.2424 3.36465C10.9394 3.06574 10.7692 2.66035 10.7692 2.23763C10.7692 1.81492 10.9394 1.40952 11.2424 1.11062C11.5453 0.81172 11.9562 0.643799 12.3846 0.643799C12.813 0.643799 13.2239 0.81172 13.5269 1.11062C13.8298 1.40952 14 1.81492 14 2.23763C14 2.66035 13.8298 3.06574 13.5269 3.36465C13.2239 3.66355 12.813 3.83147 12.3846 3.83147Z" fill="black"/>
</svg>
