<svg width="22" height="22" viewBox="0 0 22 22" fill="none" xmlns="http://www.w3.org/2000/svg">
<path d="M11 17.05C13.563 17.05 15.73 15.444 16.621 13.2H5.379C6.259 15.444 8.437 17.05 11 17.05ZM7.15 9.9C7.58761 9.9 8.00729 9.72616 8.31673 9.41673C8.62616 9.10729 8.8 8.68761 8.8 8.25C8.8 7.81239 8.62616 7.39271 8.31673 7.08327C8.00729 6.77384 7.58761 6.6 7.15 6.6C6.71239 6.6 6.29271 6.77384 5.98327 7.08327C5.67384 7.39271 5.5 7.81239 5.5 8.25C5.5 8.68761 5.67384 9.10729 5.98327 9.41673C6.29271 9.72616 6.71239 9.9 7.15 9.9ZM14.85 9.9C15.2876 9.9 15.7073 9.72616 16.0167 9.41673C16.3262 9.10729 16.5 8.68761 16.5 8.25C16.5 7.81239 16.3262 7.39271 16.0167 7.08327C15.7073 6.77384 15.2876 6.6 14.85 6.6C14.4124 6.6 13.9927 6.77384 13.6833 7.08327C13.3738 7.39271 13.2 7.81239 13.2 8.25C13.2 8.68761 13.3738 9.10729 13.6833 9.41673C13.9927 9.72616 14.4124 9.9 14.85 9.9ZM11 19.8C8.66609 19.8 6.42778 18.8729 4.77746 17.2225C3.12714 15.5722 2.2 13.3339 2.2 11C2.2 8.66609 3.12714 6.42778 4.77746 4.77746C6.42778 3.12714 8.66609 2.2 11 2.2C13.3339 2.2 15.5722 3.12714 17.2225 4.77746C18.8729 6.42778 19.8 8.66609 19.8 11C19.8 13.3339 18.8729 15.5722 17.2225 17.2225C15.5722 18.8729 13.3339 19.8 11 19.8ZM11 0C4.917 0 0 4.95 0 11C0 13.9174 1.15893 16.7153 3.22183 18.7782C4.24327 19.7996 5.4559 20.6099 6.79048 21.1627C8.12506 21.7155 9.55546 22 11 22C13.9174 22 16.7153 20.8411 18.7782 18.7782C20.8411 16.7153 22 13.9174 22 11C22 9.55546 21.7155 8.12506 21.1627 6.79048C20.6099 5.4559 19.7996 4.24327 18.7782 3.22183C17.7567 2.20038 16.5441 1.39013 15.2095 0.837325C13.8749 0.284523 12.4445 0 11 0Z" fill="#FFD018"/>
</svg>
