<svg width="43" height="43" viewBox="0 0 43 43" fill="none" xmlns="http://www.w3.org/2000/svg">
<rect width="43" height="43" rx="10" fill="white"/>
<g clip-path="url(#clip0_1_2)">
<path d="M28.4621 10.1654V13.8147H26.1971C25.8969 13.7779 25.5919 13.8035 25.3029 13.8896C25.0139 13.9758 24.7476 14.1205 24.5221 14.314L24.5241 14.3121C24.2 14.7479 24.0469 15.2794 24.0921 15.8128V15.8052V18.4176H28.3211L27.7611 22.5097H24.0981V32.9996H19.6811V22.5087H16.0011V18.4176H19.6811V15.4036C19.6333 14.6757 19.7419 13.9461 20.0002 13.26C20.2586 12.5739 20.6612 11.9459 21.1831 11.415L21.1801 11.4179C21.7128 10.9342 22.3424 10.5592 23.0309 10.3157C23.7193 10.0723 24.4522 9.96535 25.1851 10.0015H25.1721C26.3104 9.98349 27.4486 10.0427 28.5781 10.1788L28.4611 10.1673L28.4621 10.1654Z" fill="#3C5A99"/>
</g>
<defs>
<clipPath id="clip0_1_2">
<rect width="12" height="23" fill="white" transform="translate(16 10)"/>
</clipPath>
</defs>
</svg>
