<svg width="23" height="23" viewBox="0 0 23 23" fill="none" xmlns="http://www.w3.org/2000/svg">
<circle cx="11.5" cy="11.5" r="11.5" fill="#17AB37"/>
<path d="M5.11071 13.1428L5.47579 13.1939L8.81261 9.85707C8.74566 9.61188 8.74557 9.35324 8.81233 9.10801C8.8791 8.86277 9.01029 8.63988 9.1923 8.46247C9.76182 7.88564 10.6818 7.88564 11.2513 8.46247C11.6383 8.84215 11.7625 9.38247 11.631 9.85707L13.5075 11.7336L13.8726 11.6825C14.004 11.6825 14.1282 11.6825 14.2377 11.7336L16.8444 9.12691C16.7932 9.01739 16.7932 8.89326 16.7932 8.76183C16.7932 8.37453 16.9471 8.00309 17.221 7.72923C17.4948 7.45537 17.8663 7.30151 18.2536 7.30151C18.6409 7.30151 19.0123 7.45537 19.2862 7.72923C19.56 8.00309 19.7139 8.37453 19.7139 8.76183C19.7139 9.14913 19.56 9.52057 19.2862 9.79443C19.0123 10.0683 18.6409 10.2221 18.2536 10.2221C18.1221 10.2221 17.998 10.2221 17.8885 10.171L15.2818 12.7777C15.3329 12.8872 15.3329 13.0114 15.3329 13.1428C15.3329 13.5301 15.1791 13.9015 14.9052 14.1754C14.6314 14.4492 14.2599 14.6031 13.8726 14.6031C13.4853 14.6031 13.1139 14.4492 12.84 14.1754C12.5662 13.9015 12.4123 13.5301 12.4123 13.1428L12.4634 12.7777L10.5869 10.9012C10.3532 10.9523 10.0904 10.9523 9.85674 10.9012L6.51991 14.238L6.57103 14.6031C6.57103 14.9904 6.41717 15.3618 6.14331 15.6357C5.86945 15.9096 5.49801 16.0634 5.11071 16.0634C4.72341 16.0634 4.35197 15.9096 4.07811 15.6357C3.80425 15.3618 3.65039 14.9904 3.65039 14.6031C3.65039 14.2158 3.80425 13.8444 4.07811 13.5705C4.35197 13.2966 4.72341 13.1428 5.11071 13.1428V13.1428Z" fill="white"/>
</svg>
