<svg width="21" height="20" viewBox="0 0 21 20" fill="none" xmlns="http://www.w3.org/2000/svg">
<path d="M10.0142 -0.000976562C4.49117 -0.000976562 0.0141602 4.47602 0.0141602 9.99902C0.0141602 15.522 4.49117 19.999 10.0142 19.999C15.5372 19.999 20.0142 15.522 20.0142 9.99902C20.0142 4.47602 15.5372 -0.000976562 10.0142 -0.000976562ZM10.0142 1.99902C14.4322 1.99902 18.0142 5.58102 18.0142 9.99902C18.0142 14.417 14.4322 17.999 10.0142 17.999C5.59617 17.999 2.01416 14.417 2.01416 9.99902C2.01416 5.58102 5.59617 1.99902 10.0142 1.99902ZM7.01417 5.59302C6.01417 5.59302 5.01417 6.05602 5.01417 6.99902C5.01417 7.55102 5.46217 7.99902 6.01417 7.99902C6.32517 7.99902 6.58117 7.84702 6.76417 7.62402C6.83417 7.61002 6.90617 7.59302 7.01417 7.59302C7.12217 7.59302 7.19417 7.61002 7.26417 7.62402C7.44717 7.84702 7.70317 7.99902 8.01417 7.99902C8.56617 7.99902 9.01417 7.55102 9.01417 6.99902C9.01417 6.05602 8.01417 5.59302 7.01417 5.59302ZM13.0142 5.59302C11.9282 5.59302 11.0142 5.92102 11.0142 6.99902C11.0142 7.55102 11.4622 7.99902 12.0142 7.99902C12.3252 7.99902 12.5812 7.84702 12.7642 7.62402C12.8342 7.61002 12.9062 7.59302 13.0142 7.59302C13.1222 7.59302 13.1942 7.61002 13.2642 7.62402C13.4472 7.84702 13.7032 7.99902 14.0142 7.99902C14.5662 7.99902 15.0142 7.55102 15.0142 6.99902C15.0142 5.92102 14.1002 5.59302 13.0142 5.59302ZM5.10816 10.03C4.47916 10.039 4.01117 10.602 4.13917 11.218C4.71517 13.979 7.15917 15.999 10.0142 15.999C12.8682 15.999 15.3122 13.977 15.8892 11.218C16.0182 10.603 15.5492 10.04 14.9202 10.03C13.0462 10.002 7.04417 10.003 5.10816 10.03ZM6.55116 12.014C8.55616 12.003 11.4822 11.991 13.4612 12.003C12.7362 13.293 11.4052 13.999 10.0142 13.999C8.62217 13.999 7.18416 13.2 6.55116 12.014Z" fill="#1A202C"/>
</svg>
