<svg width="22" height="21" viewBox="0 0 22 21" fill="none" xmlns="http://www.w3.org/2000/svg">
<g clip-path="url(#clip0_14_13657)">
<path d="M6.79479 10.5C5.55729 10.5391 4.54514 11.0391 3.75833 12H2.22292C1.59653 12 1.06944 11.8418 0.641667 11.5254C0.213889 11.209 0 10.7461 0 10.1367C0 7.37891 0.473611 6 1.42083 6C1.46667 6 1.63281 6.08203 1.91927 6.24609C2.20573 6.41016 2.57812 6.57617 3.03646 6.74414C3.49479 6.91211 3.94931 6.99609 4.4 6.99609C4.91181 6.99609 5.41979 6.90625 5.92396 6.72656C5.88576 7.01562 5.86667 7.27344 5.86667 7.5C5.86667 8.58594 6.17604 9.58594 6.79479 10.5ZM19.0667 17.9648C19.0667 18.9023 18.7878 19.6426 18.2302 20.1855C17.6726 20.7285 16.9316 21 16.0073 21H5.99271C5.0684 21 4.32743 20.7285 3.76979 20.1855C3.21215 19.6426 2.93333 18.9023 2.93333 17.9648C2.93333 17.5508 2.9467 17.1465 2.97344 16.752C3.00017 16.3574 3.05365 15.9316 3.13385 15.4746C3.21406 15.0176 3.31528 14.5938 3.4375 14.2031C3.55972 13.8125 3.72396 13.4316 3.93021 13.0605C4.13646 12.6895 4.37326 12.373 4.64062 12.1113C4.90799 11.8496 5.23455 11.6406 5.62031 11.4844C6.00608 11.3281 6.43194 11.25 6.89792 11.25C6.97431 11.25 7.13854 11.334 7.39062 11.502C7.64271 11.6699 7.92153 11.8574 8.22708 12.0645C8.53264 12.2715 8.94132 12.459 9.45312 12.627C9.96493 12.7949 10.4806 12.8789 11 12.8789C11.5194 12.8789 12.0351 12.7949 12.5469 12.627C13.0587 12.459 13.4674 12.2715 13.7729 12.0645C14.0785 11.8574 14.3573 11.6699 14.6094 11.502C14.8615 11.334 15.0257 11.25 15.1021 11.25C15.5681 11.25 15.9939 11.3281 16.3797 11.4844C16.7655 11.6406 17.092 11.8496 17.3594 12.1113C17.6267 12.373 17.8635 12.6895 18.0698 13.0605C18.276 13.4316 18.4403 13.8125 18.5625 14.2031C18.6847 14.5938 18.7859 15.0176 18.8661 15.4746C18.9464 15.9316 18.9998 16.3574 19.0266 16.752C19.0533 17.1465 19.0667 17.5508 19.0667 17.9648ZM7.33333 3C7.33333 3.82812 7.04688 4.53516 6.47396 5.12109C5.90104 5.70703 5.20972 6 4.4 6C3.59028 6 2.89896 5.70703 2.32604 5.12109C1.75313 4.53516 1.46667 3.82812 1.46667 3C1.46667 2.17188 1.75313 1.46484 2.32604 0.878906C2.89896 0.292969 3.59028 0 4.4 0C5.20972 0 5.90104 0.292969 6.47396 0.878906C7.04688 1.46484 7.33333 2.17188 7.33333 3ZM15.4 7.5C15.4 8.74219 14.9703 9.80273 14.1109 10.6816C13.2516 11.5605 12.2146 12 11 12C9.78542 12 8.74844 11.5605 7.88906 10.6816C7.02969 9.80273 6.6 8.74219 6.6 7.5C6.6 6.25781 7.02969 5.19727 7.88906 4.31836C8.74844 3.43945 9.78542 3 11 3C12.2146 3 13.2516 3.43945 14.1109 4.31836C14.9703 5.19727 15.4 6.25781 15.4 7.5ZM22 10.1367C22 10.7461 21.7861 11.209 21.3583 11.5254C20.9306 11.8418 20.4035 12 19.7771 12H18.2417C17.4549 11.0391 16.4427 10.5391 15.2052 10.5C15.824 9.58594 16.1333 8.58594 16.1333 7.5C16.1333 7.27344 16.1142 7.01562 16.076 6.72656C16.5802 6.90625 17.0882 6.99609 17.6 6.99609C18.0507 6.99609 18.5052 6.91211 18.9635 6.74414C19.4219 6.57617 19.7943 6.41016 20.0807 6.24609C20.3672 6.08203 20.5333 6 20.5792 6C21.5264 6 22 7.37891 22 10.1367ZM20.5333 3C20.5333 3.82812 20.2469 4.53516 19.674 5.12109C19.101 5.70703 18.4097 6 17.6 6C16.7903 6 16.099 5.70703 15.526 5.12109C14.9531 4.53516 14.6667 3.82812 14.6667 3C14.6667 2.17188 14.9531 1.46484 15.526 0.878906C16.099 0.292969 16.7903 0 17.6 0C18.4097 0 19.101 0.292969 19.674 0.878906C20.2469 1.46484 20.5333 2.17188 20.5333 3Z" fill="#17AB37"/>
</g>
<defs>
<clipPath id="clip0_14_13657">
<rect width="22" height="21" fill="white"/>
</clipPath>
</defs>
</svg>
