<svg width="18" height="19" viewBox="0 0 18 19" fill="none" xmlns="http://www.w3.org/2000/svg">
<path d="M2 8.55L4 6.43889L9.5 12.2444L13 8.55L16 11.7167V2.11111H2V8.55ZM2 11.5362V16.8889H5.1L8.086 13.7381L4 9.42506L2 11.5362ZM7.929 16.8889H16V14.7028L13 11.5362L7.929 16.8889ZM1 0H17C17.2652 0 17.5196 0.11121 17.7071 0.309165C17.8946 0.50712 18 0.775605 18 1.05556V17.9444C18 18.2244 17.8946 18.4929 17.7071 18.6908C17.5196 18.8888 17.2652 19 17 19H1C0.734784 19 0.48043 18.8888 0.292893 18.6908C0.105357 18.4929 0 18.2244 0 17.9444V1.05556C0 0.775605 0.105357 0.50712 0.292893 0.309165C0.48043 0.11121 0.734784 0 1 0ZM12.5 7.38889C12.1022 7.38889 11.7206 7.22207 11.4393 6.92514C11.158 6.62821 11 6.22548 11 5.80556C11 5.38563 11.158 4.9829 11.4393 4.68597C11.7206 4.38904 12.1022 4.22222 12.5 4.22222C12.8978 4.22222 13.2794 4.38904 13.5607 4.68597C13.842 4.9829 14 5.38563 14 5.80556C14 6.22548 13.842 6.62821 13.5607 6.92514C13.2794 7.22207 12.8978 7.38889 12.5 7.38889Z" fill="#17AB37"/>
</svg>
