<svg width="10" height="7" viewBox="0 0 10 7" fill="none" xmlns="http://www.w3.org/2000/svg">
<path d="M5.20833 3.3125C5.40972 3.09028 5.56431 2.83681 5.67208 2.55208C5.77958 2.26736 5.83333 1.97222 5.83333 1.66667C5.83333 1.36111 5.77958 1.06597 5.67208 0.78125C5.56431 0.496528 5.40972 0.243056 5.20833 0.0208334C5.625 0.076389 5.97222 0.260417 6.25 0.572917C6.52778 0.885417 6.66667 1.25 6.66667 1.66667C6.66667 2.08333 6.52778 2.44792 6.25 2.76042C5.97222 3.07292 5.625 3.25694 5.20833 3.3125ZM7.30208 6.66667C7.36458 6.61806 7.41319 6.55722 7.44792 6.48417C7.48264 6.41139 7.5 6.32986 7.5 6.23958V5.41667C7.5 5.16667 7.44444 4.92889 7.33333 4.70333C7.22222 4.4775 7.07639 4.27778 6.89583 4.10417C7.25 4.22917 7.57819 4.39056 7.88042 4.58833C8.18236 4.78639 8.33333 5.0625 8.33333 5.41667V6.25C8.33333 6.36806 8.29333 6.46694 8.21333 6.54667C8.13361 6.62667 8.03472 6.66667 7.91667 6.66667H7.30208ZM8.75 3.75C8.63194 3.75 8.53306 3.71 8.45333 3.63C8.37333 3.55028 8.33333 3.45139 8.33333 3.33333V2.91667H7.91667C7.79861 2.91667 7.69972 2.87667 7.62 2.79667C7.54 2.71694 7.5 2.61806 7.5 2.5C7.5 2.38194 7.54 2.28292 7.62 2.20292C7.69972 2.12319 7.79861 2.08333 7.91667 2.08333H8.33333V1.66667C8.33333 1.54861 8.37333 1.44958 8.45333 1.36958C8.53306 1.28986 8.63194 1.25 8.75 1.25C8.86806 1.25 8.96694 1.28986 9.04667 1.36958C9.12667 1.44958 9.16667 1.54861 9.16667 1.66667V2.08333H9.58333C9.70139 2.08333 9.80028 2.12319 9.88 2.20292C9.96 2.28292 10 2.38194 10 2.5C10 2.61806 9.96 2.71694 9.88 2.79667C9.80028 2.87667 9.70139 2.91667 9.58333 2.91667H9.16667V3.33333C9.16667 3.45139 9.12667 3.55028 9.04667 3.63C8.96694 3.71 8.86806 3.75 8.75 3.75ZM3.33333 3.33333C2.875 3.33333 2.48264 3.17014 2.15625 2.84375C1.82986 2.51736 1.66667 2.125 1.66667 1.66667C1.66667 1.20833 1.82986 0.815972 2.15625 0.489583C2.48264 0.163195 2.875 0 3.33333 0C3.79167 0 4.18403 0.163195 4.51042 0.489583C4.83681 0.815972 5 1.20833 5 1.66667C5 2.125 4.83681 2.51736 4.51042 2.84375C4.18403 3.17014 3.79167 3.33333 3.33333 3.33333ZM0.416667 6.66667C0.298611 6.66667 0.199722 6.62667 0.12 6.54667C0.04 6.46694 0 6.36806 0 6.25V5.5C0 5.26389 0.0608333 5.04681 0.1825 4.84875C0.303889 4.65097 0.465278 4.5 0.666667 4.39583C1.09722 4.18056 1.53472 4.01903 1.97917 3.91125C2.42361 3.80375 2.875 3.75 3.33333 3.75C3.79167 3.75 4.24306 3.80375 4.6875 3.91125C5.13194 4.01903 5.56944 4.18056 6 4.39583C6.20139 4.5 6.36278 4.65097 6.48417 4.84875C6.60583 5.04681 6.66667 5.26389 6.66667 5.5V6.25C6.66667 6.36806 6.62681 6.46694 6.54708 6.54667C6.46708 6.62667 6.36806 6.66667 6.25 6.66667H0.416667Z" fill="white"/>
</svg>
