<svg width="15" height="16" viewBox="0 0 15 16" fill="none" xmlns="http://www.w3.org/2000/svg">
<path d="M11.3424 3.17274C11.3424 1.32802 10.3789 0 8.80096 0C7.93383 0 7.63633 0.454759 7.32531 1.51083C7.26192 1.7299 7.23065 1.83566 7.19769 1.94066C7.11233 2.2111 6.96358 2.67341 6.75229 3.32307C6.74652 3.34043 6.73798 3.35697 6.72694 3.37217L4.30556 6.76095C3.7324 7.56257 2.88665 8.17871 1.89263 8.5188L1.49287 8.65553C0.982432 8.83028 0.557232 9.16023 0.29199 9.58741C0.0267489 10.0146 -0.0615623 10.5117 0.042576 10.9913L0.38402 12.5671C0.483939 13.0277 0.729449 13.4531 1.09148 13.7929C1.45351 14.1327 1.9169 14.3726 2.42677 14.4843L8.87364 15.8969C9.90143 16.122 10.9871 15.9752 11.8944 15.4886C12.8018 15.002 13.4575 14.2148 13.7189 13.2983L14.9148 9.10576C15.0183 8.74324 15.0276 8.3644 14.9422 7.99816C14.8568 7.63191 14.6789 7.28796 14.422 6.99257C14.1652 6.69718 13.8362 6.45817 13.4602 6.29378C13.0842 6.12939 12.6711 6.04398 12.2526 6.04406H10.7127C11.1319 4.81047 11.3432 3.85941 11.3432 3.17274H11.3424ZM1.28496 10.7752C1.23772 10.5573 1.27791 10.3314 1.39847 10.1373C1.51903 9.94321 1.71224 9.79329 1.94418 9.71387L2.34479 9.57714C3.59197 9.15033 4.65308 8.37718 5.37215 7.37133L7.79522 3.98254C7.87128 3.87678 7.9296 3.76045 7.96848 3.63958C8.18146 2.98615 8.3302 2.52157 8.41641 2.24736C8.46328 2.09854 8.50808 1.94921 8.55079 1.7994C8.71137 1.25399 8.78997 1.13388 8.80011 1.13388C9.53371 1.13388 10.0738 1.8772 10.0738 3.17274C10.0738 3.84052 9.79825 4.93663 9.24213 6.43235C9.21058 6.51743 9.20205 6.60799 9.21727 6.69659C9.23249 6.78519 9.27101 6.8693 9.32966 6.942C9.38832 7.01471 9.46544 7.07393 9.55468 7.11482C9.64393 7.1557 9.74275 7.17708 9.84304 7.17719H12.2517C12.4771 7.17717 12.6994 7.22317 12.9018 7.31168C13.1042 7.40018 13.2814 7.52886 13.4196 7.68788C13.5579 7.8469 13.6537 8.03205 13.6997 8.22921C13.7458 8.42638 13.7408 8.63033 13.6851 8.8255L12.4892 13.018C12.3102 13.6451 11.8615 14.1836 11.2406 14.5165C10.6197 14.8493 9.87687 14.9496 9.17367 14.7955L2.7268 13.3829C2.4524 13.3227 2.20301 13.1936 2.00815 13.0107C1.81329 12.8279 1.68111 12.5989 1.62725 12.351L1.28496 10.7752Z" fill="#4E5D78"/>
</svg>
