<svg width="21" height="20" viewBox="0 0 21 20" fill="none" xmlns="http://www.w3.org/2000/svg">
<path d="M10.0142 -0.000976562C4.49116 -0.000976562 0.0141602 4.47602 0.0141602 9.99902C0.0141602 15.522 4.49116 19.999 10.0142 19.999C15.5372 19.999 20.0142 15.522 20.0142 9.99902C20.0142 4.47602 15.5372 -0.000976562 10.0142 -0.000976562ZM10.0142 1.99902C14.4322 1.99902 18.0142 5.58102 18.0142 9.99902C18.0142 14.417 14.4322 17.999 10.0142 17.999C5.59616 17.999 2.01416 14.417 2.01416 9.99902C2.01416 5.58102 5.59616 1.99902 10.0142 1.99902ZM6.01416 6.99902C5.75816 6.99902 5.49117 7.08503 5.29517 7.28003C4.90517 7.67103 4.90517 8.32702 5.29517 8.71802L6.29517 9.71802C6.49117 9.91302 6.75216 9.99902 7.01416 9.99902C7.27616 9.99902 7.53715 9.91302 7.73315 9.71802L8.73315 8.71802C9.12315 8.32702 9.12315 7.67103 8.73315 7.28003C8.53715 7.08503 8.27016 6.99902 8.01416 6.99902C7.75816 6.99902 7.49117 7.08503 7.29517 7.28003L7.01416 7.56102L6.73315 7.28003C6.53715 7.08503 6.27016 6.99902 6.01416 6.99902ZM12.0142 6.99902C11.7582 6.99902 11.4912 7.08503 11.2952 7.28003C10.9052 7.67103 10.9052 8.32702 11.2952 8.71802L12.2952 9.71802C12.4912 9.91302 12.7522 9.99902 13.0142 9.99902C13.2762 9.99902 13.5372 9.91302 13.7332 9.71802L14.7332 8.71802C15.1232 8.32702 15.1232 7.67103 14.7332 7.28003C14.5372 7.08503 14.2702 6.99902 14.0142 6.99902C13.7582 6.99902 13.4912 7.08503 13.2952 7.28003L13.0142 7.56102L12.7332 7.28003C12.5372 7.08503 12.2702 6.99902 12.0142 6.99902ZM7.20216 11.843C6.94616 11.843 6.67815 11.929 6.48315 12.124C6.09215 12.515 6.09215 13.14 6.48315 13.53C7.41415 14.46 8.67216 14.999 10.0142 14.999C11.3522 14.999 12.6152 14.455 13.5452 13.53C13.9372 13.141 13.9352 12.516 13.5452 12.124C13.1562 11.732 12.5312 11.735 12.1392 12.124C11.5802 12.68 10.8182 12.999 10.0142 12.999C9.20716 12.999 8.44816 12.683 7.88916 12.124C7.69416 11.929 7.45716 11.843 7.20216 11.843Z" fill="#1A202C"/>
</svg>
