<svg width="10" height="8" viewBox="0 0 10 8" fill="none" xmlns="http://www.w3.org/2000/svg">
<path d="M0.416016 7.33341V6.16675C0.416016 5.93064 0.476849 5.71355 0.598516 5.5155C0.719904 5.31772 0.881293 5.16675 1.08268 5.06258C1.51324 4.8473 1.95074 4.68578 2.39518 4.578C2.83963 4.4705 3.29102 4.41675 3.74935 4.41675C4.20768 4.41675 4.65907 4.4705 5.10352 4.578C5.54796 4.68578 5.98546 4.8473 6.41601 5.06258C6.6174 5.16675 6.77879 5.31772 6.90018 5.5155C7.02185 5.71355 7.08268 5.93064 7.08268 6.16675V7.33341H0.416016ZM7.91601 7.33341V6.08341C7.91601 5.77786 7.83102 5.48439 7.66102 5.203C7.49074 4.92189 7.24935 4.68064 6.93685 4.47925C7.29101 4.52091 7.62435 4.59203 7.93685 4.69258C8.24935 4.79341 8.54101 4.91675 8.81185 5.06258C9.06185 5.20147 9.25282 5.35591 9.38476 5.52591C9.51671 5.69619 9.58268 5.88203 9.58268 6.08341V7.33341H7.91601ZM3.74935 4.00008C3.29102 4.00008 2.89865 3.83689 2.57227 3.5105C2.24588 3.18411 2.08268 2.79175 2.08268 2.33341C2.08268 1.87508 2.24588 1.48272 2.57227 1.15633C2.89865 0.829943 3.29102 0.666748 3.74935 0.666748C4.20768 0.666748 4.60004 0.829943 4.92643 1.15633C5.25282 1.48272 5.41602 1.87508 5.41602 2.33341C5.41602 2.79175 5.25282 3.18411 4.92643 3.5105C4.60004 3.83689 4.20768 4.00008 3.74935 4.00008ZM7.91601 2.33341C7.91601 2.79175 7.75282 3.18411 7.42643 3.5105C7.10004 3.83689 6.70768 4.00008 6.24935 4.00008C6.17296 4.00008 6.07574 3.99147 5.95768 3.97425C5.83963 3.95675 5.7424 3.93758 5.66602 3.91675C5.85352 3.69453 5.99754 3.448 6.0981 3.17716C6.19893 2.90633 6.24935 2.62508 6.24935 2.33341C6.24935 2.04175 6.19893 1.7605 6.0981 1.48966C5.99754 1.21883 5.85352 0.972304 5.66602 0.750081C5.76324 0.715359 5.86046 0.69272 5.95768 0.682165C6.0549 0.671887 6.15213 0.666748 6.24935 0.666748C6.70768 0.666748 7.10004 0.829943 7.42643 1.15633C7.75282 1.48272 7.91601 1.87508 7.91601 2.33341Z" fill="black"/>
</svg>
