<svg width="14" height="4" viewBox="0 0 14 4" fill="none" xmlns="http://www.w3.org/2000/svg">
<path d="M1.61538 3.83122C1.18696 3.83122 0.776079 3.6633 0.473135 3.3644C0.170192 3.0655 0 2.6601 0 2.23739C0 1.81468 0.170192 1.40928 0.473135 1.11038C0.776079 0.811476 1.18696 0.643555 1.61538 0.643555C2.04381 0.643555 2.45469 0.811476 2.75763 1.11038C3.06058 1.40928 3.23077 1.81468 3.23077 2.23739C3.23077 2.6601 3.06058 3.0655 2.75763 3.3644C2.45469 3.6633 2.04381 3.83122 1.61538 3.83122ZM7 3.83122C6.57157 3.83122 6.16069 3.6633 5.85775 3.3644C5.55481 3.0655 5.38462 2.6601 5.38462 2.23739C5.38462 1.81468 5.55481 1.40928 5.85775 1.11038C6.16069 0.811476 6.57157 0.643555 7 0.643555C7.42843 0.643555 7.83931 0.811476 8.14225 1.11038C8.44519 1.40928 8.61539 1.81468 8.61539 2.23739C8.61539 2.6601 8.44519 3.0655 8.14225 3.3644C7.83931 3.6633 7.42843 3.83122 7 3.83122ZM12.3846 3.83122C11.9562 3.83122 11.5453 3.6633 11.2424 3.3644C10.9394 3.0655 10.7692 2.6601 10.7692 2.23739C10.7692 1.81468 10.9394 1.40928 11.2424 1.11038C11.5453 0.811476 11.9562 0.643555 12.3846 0.643555C12.813 0.643555 13.2239 0.811476 13.5269 1.11038C13.8298 1.40928 14 1.81468 14 2.23739C14 2.6601 13.8298 3.0655 13.5269 3.3644C13.2239 3.6633 12.813 3.83122 12.3846 3.83122Z" fill="black"/>
</svg>
