<svg width="13" height="14" viewBox="0 0 13 14" fill="none" xmlns="http://www.w3.org/2000/svg">
<path d="M7.90075 0H2.16667C1.59203 0 1.04093 0.184374 0.634602 0.512563C0.228273 0.840752 0 1.28587 0 1.75V12.25C0 12.7141 0.228273 13.1592 0.634602 13.4874C1.04093 13.8156 1.59203 14 2.16667 14H10.8333C11.408 14 11.9591 13.8156 12.3654 13.4874C12.7717 13.1592 13 12.7141 13 12.25V4.11862C12.9999 3.88658 12.8858 3.66406 12.6826 3.5L8.66667 0.256375C8.46355 0.0922693 8.18804 4.95577e-05 7.90075 0V0ZM8.125 3.0625V1.3125L11.375 3.9375H9.20833C8.92102 3.9375 8.64547 3.84531 8.4423 3.68122C8.23914 3.51712 8.125 3.29456 8.125 3.0625ZM2.70833 2.625H5.41667C5.56033 2.625 5.6981 2.67109 5.79968 2.75314C5.90127 2.83519 5.95833 2.94647 5.95833 3.0625C5.95833 3.17853 5.90127 3.28981 5.79968 3.37186C5.6981 3.45391 5.56033 3.5 5.41667 3.5H2.70833C2.56467 3.5 2.4269 3.45391 2.32532 3.37186C2.22374 3.28981 2.16667 3.17853 2.16667 3.0625C2.16667 2.94647 2.22374 2.83519 2.32532 2.75314C2.4269 2.67109 2.56467 2.625 2.70833 2.625ZM2.70833 5.25H10.2917C10.4353 5.25 10.5731 5.29609 10.6747 5.37814C10.7763 5.46019 10.8333 5.57147 10.8333 5.6875V11.8125C10.8333 11.9285 10.7763 12.0398 10.6747 12.1219C10.5731 12.2039 10.4353 12.25 10.2917 12.25H2.70833C2.56467 12.25 2.4269 12.2039 2.32532 12.1219C2.22374 12.0398 2.16667 11.9285 2.16667 11.8125V5.6875C2.16667 5.57147 2.22374 5.46019 2.32532 5.37814C2.4269 5.29609 2.56467 5.25 2.70833 5.25Z" fill="#DADADA"/>
</svg>
