<svg width="14" height="18" viewBox="0 0 14 18" fill="none" xmlns="http://www.w3.org/2000/svg">
<path d="M1.66667 5.83333H9.16667V4.16667C9.16667 3.47222 8.92361 2.88194 8.4375 2.39583C7.95139 1.90972 7.36111 1.66667 6.66667 1.66667C5.97222 1.66667 5.38194 1.90972 4.89583 2.39583C4.40972 2.88194 4.16667 3.47222 4.16667 4.16667H2.5C2.5 3.01389 2.90639 2.03111 3.71917 1.21833C4.53139 0.406111 5.51389 0 6.66667 0C7.81944 0 8.80222 0.406111 9.615 1.21833C10.4272 2.03111 10.8333 3.01389 10.8333 4.16667V5.83333H11.6667C12.125 5.83333 12.5175 5.99639 12.8442 6.3225C13.1703 6.64917 13.3333 7.04167 13.3333 7.5V15.8333C13.3333 16.2917 13.1703 16.6842 12.8442 17.0108C12.5175 17.3369 12.125 17.5 11.6667 17.5H1.66667C1.20833 17.5 0.816111 17.3369 0.49 17.0108C0.163333 16.6842 0 16.2917 0 15.8333V7.5C0 7.04167 0.163333 6.64917 0.49 6.3225C0.816111 5.99639 1.20833 5.83333 1.66667 5.83333ZM6.66667 13.3333C7.125 13.3333 7.5175 13.1703 7.84417 12.8442C8.17028 12.5175 8.33333 12.125 8.33333 11.6667C8.33333 11.2083 8.17028 10.8158 7.84417 10.4892C7.5175 10.1631 7.125 10 6.66667 10C6.20833 10 5.81611 10.1631 5.49 10.4892C5.16333 10.8158 5 11.2083 5 11.6667C5 12.125 5.16333 12.5175 5.49 12.8442C5.81611 13.1703 6.20833 13.3333 6.66667 13.3333Z" fill="#D9D9D9"/>
</svg>
