<svg width="6" height="8" viewBox="0 0 6 8" fill="none" xmlns="http://www.w3.org/2000/svg">
<path d="M1.00065 7.33325C0.817318 7.33325 0.660429 7.26803 0.529984 7.13759C0.399318 7.00692 0.333984 6.84992 0.333984 6.66659V3.33325C0.333984 3.14992 0.399318 2.99292 0.529984 2.86225C0.660429 2.73181 0.817318 2.66659 1.00065 2.66659H1.33398V1.99992C1.33398 1.53881 1.49654 1.1457 1.82165 0.820585C2.14654 0.495696 2.53954 0.333252 3.00065 0.333252C3.46176 0.333252 3.85487 0.495696 4.17998 0.820585C4.50487 1.1457 4.66732 1.53881 4.66732 1.99992V2.66659H5.00065C5.18398 2.66659 5.34098 2.73181 5.47165 2.86225C5.6021 2.99292 5.66732 3.14992 5.66732 3.33325V6.66659C5.66732 6.84992 5.6021 7.00692 5.47165 7.13759C5.34098 7.26803 5.18398 7.33325 5.00065 7.33325H1.00065ZM3.00065 5.66659C3.18398 5.66659 3.34098 5.60136 3.47165 5.47092C3.6021 5.34025 3.66732 5.18325 3.66732 4.99992C3.66732 4.81659 3.6021 4.65959 3.47165 4.52892C3.34098 4.39847 3.18398 4.33325 3.00065 4.33325C2.81732 4.33325 2.66043 4.39847 2.52998 4.52892C2.39932 4.65959 2.33398 4.81659 2.33398 4.99992C2.33398 5.18325 2.39932 5.34025 2.52998 5.47092C2.66043 5.60136 2.81732 5.66659 3.00065 5.66659ZM2.00065 2.66659H4.00065V1.99992C4.00065 1.72214 3.90343 1.48603 3.70898 1.29159C3.51454 1.09714 3.27843 0.999919 3.00065 0.999919C2.72287 0.999919 2.48676 1.09714 2.29232 1.29159C2.09787 1.48603 2.00065 1.72214 2.00065 1.99992V2.66659Z" fill="black"/>
</svg>
