<svg width="31" height="31" viewBox="0 0 31 31" fill="none" xmlns="http://www.w3.org/2000/svg">
<path d="M15.5 2.90625C8.55588 2.90625 2.90625 8.55588 2.90625 15.5C2.90625 22.4441 8.55588 28.0938 15.5 28.0938C22.4441 28.0938 28.0938 22.4441 28.0938 15.5C28.0938 8.55588 22.4441 2.90625 15.5 2.90625ZM12.4593 9.97934C13.2265 9.16619 14.306 8.71875 15.5 8.71875C16.694 8.71875 17.7638 9.16922 18.534 9.9866C19.3145 10.8149 19.6941 11.9277 19.6045 13.1241C19.4253 15.5 17.5846 17.4375 15.5 17.4375C13.4154 17.4375 11.5711 15.5 11.3955 13.1235C11.3065 11.9174 11.6855 10.801 12.4593 9.97934ZM15.5 26.1562C14.0774 26.1572 12.6692 25.8725 11.3587 25.3189C10.0482 24.7654 8.86225 23.9544 7.87109 22.9339C8.43876 22.1244 9.16205 21.4361 9.99871 20.9093C11.5421 19.9199 13.4953 19.375 15.5 19.375C17.5047 19.375 19.4579 19.9199 20.9995 20.9093C21.8368 21.4359 22.5608 22.1242 23.1289 22.9339C22.1378 23.9545 20.9519 24.7656 19.6414 25.3191C18.3309 25.8727 16.9226 26.1573 15.5 26.1562Z" fill="#17AB37"/>
</svg>
