<svg width="24" height="25" viewBox="0 0 24 25" fill="none" xmlns="http://www.w3.org/2000/svg">
<path d="M12 21.7813C17.1086 21.7813 21.25 17.6399 21.25 12.5313C21.25 7.42262 17.1086 3.28125 12 3.28125C6.89137 3.28125 2.75 7.42262 2.75 12.5313C2.75 17.6399 6.89137 21.7813 12 21.7813Z" stroke="#1A202C" stroke-width="1.5" stroke-linecap="round" stroke-linejoin="round"/>
<path d="M13.8299 3.64111C13.7999 4.08111 13.5999 4.49111 13.2999 4.81111C12.9899 5.14111 12.5299 5.26111 12.2299 5.59111C12.0199 5.83111 11.9699 6.16111 12.0299 6.47111C12.1099 6.83111 12.3599 7.10111 12.4399 7.45111C12.5199 7.81111 12.4399 8.17111 12.4599 8.54111C12.4799 8.95111 12.5199 9.37111 12.4999 9.78111C12.4699 10.5611 11.9699 11.2611 11.2599 11.5711C10.9599 11.7011 10.6099 11.7811 10.3999 12.0411C10.1999 12.2811 10.1799 12.6211 9.99991 12.8711C9.79991 13.1711 9.3899 13.3211 9.0399 13.2111C8.6999 13.1111 8.4699 12.8111 8.1799 12.6311C7.8499 12.4311 7.44991 12.3511 7.05991 12.3411C6.64991 12.3311 6.22992 12.4011 5.81992 12.4611C5.01992 12.5911 4.0899 12.7311 3.3999 12.2111" stroke="#1A202C" stroke-width="1.5" stroke-linecap="round" stroke-linejoin="round"/>
<path d="M10.98 20.9511C10.96 20.5411 10.92 20.1211 10.94 19.7111C10.97 18.9311 11.47 18.2311 12.18 17.9211C12.48 17.7911 12.83 17.7111 13.04 17.4511C13.24 17.2111 13.26 16.8711 13.44 16.6211C13.64 16.3211 14.05 16.1711 14.4 16.2811C14.74 16.3811 14.97 16.6811 15.26 16.8611C15.59 17.0611 15.99 17.1411 16.38 17.1511C16.79 17.1611 17.21 17.0911 17.62 17.0311C18.42 16.9011 19.208 16.6311 19.898 17.1511" stroke="#1A202C" stroke-width="1.5" stroke-linecap="round" stroke-linejoin="round"/>
</svg>
