<svg width="36" height="36" viewBox="0 0 36 36" fill="none" xmlns="http://www.w3.org/2000/svg">
<path d="M16.2114 3C8.92682 3 3 8.92682 3 16.2114C3 23.4963 8.92682 29.4227 16.2114 29.4227C23.4963 29.4227 29.4227 23.4963 29.4227 16.2114C29.4227 8.92682 23.4963 3 16.2114 3ZM16.2114 26.9838C10.2715 26.9838 5.43902 22.1512 5.43902 16.2114C5.43902 10.2716 10.2715 5.43902 16.2114 5.43902C22.1512 5.43902 26.9837 10.2715 26.9837 16.2114C26.9837 22.1512 22.1512 26.9838 16.2114 26.9838Z" fill="#4A5568"/>
<path d="M32.6425 30.918L25.6506 23.9262C25.1742 23.4497 24.4026 23.4497 23.9262 23.9262C23.4497 24.4022 23.4497 25.1746 23.9262 25.6506L30.918 32.6425C31.1562 32.8806 31.4681 32.9998 31.7802 32.9998C32.092 32.9998 32.4042 32.8806 32.6425 32.6425C33.1189 32.1664 33.1189 31.3941 32.6425 30.918Z" fill="#4A5568"/>
</svg>
