<svg width="8" height="8" viewBox="0 0 8 8" fill="none" xmlns="http://www.w3.org/2000/svg">
<path d="M7.98195 0.343025C8.00013 0.297593 8.00458 0.247823 7.99475 0.199885C7.98492 0.151947 7.96123 0.107949 7.92663 0.0733455C7.89202 0.0387422 7.84803 0.0150555 7.80009 0.00522175C7.75215 -0.00461198 7.70238 -0.000160227 7.65695 0.0180251L0.383448 2.92753H0.382948L0.156948 3.01752C0.114143 3.0346 0.0768904 3.06317 0.0493055 3.10009C0.0217205 3.13701 0.00487663 3.18083 0.000634364 3.22672C-0.00360791 3.27261 0.00491656 3.31878 0.0252661 3.36013C0.0456157 3.40147 0.0769984 3.43639 0.115948 3.46102L0.320948 3.59103L0.321448 3.59203L2.81895 5.18103L3.61395 6.43003C3.99995 7.00003 3.99995 6.50003 3.99995 6.25003C3.99989 5.93232 4.06711 5.6182 4.1972 5.32835C4.32728 5.03849 4.51727 4.77947 4.75467 4.56834C4.99207 4.3572 5.27149 4.19873 5.57455 4.10336C5.8776 4.008 6.19742 3.97789 6.51295 4.01503L7.98195 0.343025ZM7.06545 1.28803L3.31845 5.03503L3.21095 4.86603C3.19125 4.83501 3.16496 4.80872 3.13395 4.78903L2.96495 4.68153L6.71195 0.934525L7.30095 0.699025L7.06595 1.28803H7.06545Z" fill="#17AB37"/>
<path d="M8 6.25C8 6.71413 7.81563 7.15925 7.48744 7.48744C7.15925 7.81563 6.71413 8 6.25 8C5.78587 8 5.34075 7.81563 5.01256 7.48744C4.68437 7.15925 4.5 6.71413 4.5 6.25C4.5 5.78587 4.68437 5.34075 5.01256 5.01256C5.34075 4.68437 5.78587 4.5 6.25 4.5C6.71413 4.5 7.15925 4.68437 7.48744 5.01256C7.81563 5.34075 8 5.78587 8 6.25ZM7.0035 5.4105C6.97533 5.39362 6.94412 5.38245 6.91163 5.37764C6.87915 5.37283 6.84604 5.37446 6.81418 5.38244C6.78233 5.39043 6.75237 5.40461 6.726 5.42418C6.69963 5.44375 6.67737 5.46833 6.6605 5.4965L6.0755 6.4715L5.802 6.198C5.75506 6.15106 5.69139 6.12468 5.625 6.12468C5.55861 6.12468 5.49494 6.15106 5.448 6.198C5.40106 6.24494 5.37468 6.30861 5.37468 6.375C5.37468 6.44139 5.40106 6.50506 5.448 6.552L5.835 6.9385C5.87528 6.97886 5.92424 7.0095 5.97814 7.0281C6.03205 7.04669 6.08948 7.05275 6.14608 7.0458C6.20267 7.03886 6.25694 7.0191 6.30476 6.98803C6.35257 6.95696 6.39267 6.9154 6.422 6.8665L7.0895 5.7535C7.10638 5.72533 7.11755 5.69412 7.12236 5.66163C7.12717 5.62915 7.12554 5.59604 7.11756 5.56418C7.10957 5.53233 7.09539 5.50237 7.07582 5.476C7.05625 5.44963 7.03167 5.42737 7.0035 5.4105Z" fill="#17AB37"/>
</svg>
