<svg width="21" height="20" viewBox="0 0 21 20" fill="none" xmlns="http://www.w3.org/2000/svg">
<path d="M10.0142 -0.000976562C4.49136 -0.000976562 0.0141602 4.47602 0.0141602 9.99902C0.0141602 15.522 4.49136 19.999 10.0142 19.999C15.537 19.999 20.0142 15.522 20.0142 9.99902C20.0142 4.47602 15.537 -0.000976562 10.0142 -0.000976562ZM10.0142 1.99902C14.4325 1.99902 18.0142 5.58102 18.0142 9.99902C18.0142 14.417 14.4325 17.999 10.0142 17.999C5.59586 17.999 2.01416 14.417 2.01416 9.99902C2.01416 5.58102 5.59586 1.99902 10.0142 1.99902ZM6.01416 6.99902C5.46186 6.99902 5.01416 7.44702 5.01416 7.99902C5.01416 8.55102 5.46186 8.99902 6.01416 8.99902H8.01416C8.56646 8.99902 9.01416 8.55102 9.01416 7.99902C9.01416 7.44702 8.56646 6.99902 8.01416 6.99902H6.01416ZM12.0142 6.99902C11.4619 6.99902 11.0142 7.44702 11.0142 7.99902C11.0142 8.55102 11.4619 8.99902 12.0142 8.99902H14.0142C14.5665 8.99902 15.0142 8.55102 15.0142 7.99902C15.0142 7.44702 14.5665 6.99902 14.0142 6.99902H12.0142ZM7.01416 11.999C6.46186 11.999 6.01416 12.447 6.01416 12.999C6.01416 13.551 6.46186 13.999 7.01416 13.999H13.0142C13.5665 13.999 14.0142 13.551 14.0142 12.999C14.0142 12.447 13.5665 11.999 13.0142 11.999H7.01416Z" fill="#1A202C"/>
</svg>
