<svg width="36" height="36" viewBox="0 0 36 36" fill="none" xmlns="http://www.w3.org/2000/svg">
<path fill-rule="evenodd" clip-rule="evenodd" d="M5.57396 5.57396C7.43601 3.71191 10.2224 3 13.814 3H22.186C25.7776 3 28.564 3.71191 30.426 5.57396C32.2881 7.43601 33 10.2224 33 13.814V22.186C33 25.7776 32.2881 28.564 30.426 30.426C28.564 32.2881 25.7776 33 22.186 33H13.814C10.2224 33 7.43601 32.2881 5.57396 30.426C3.71191 28.564 3 25.7776 3 22.186V13.814C3 10.2224 3.71191 7.43601 5.57396 5.57396ZM7.05395 7.05395C5.77646 8.33143 5.09302 10.4288 5.09302 13.814V22.186C5.09302 25.5712 5.77646 27.6686 7.05395 28.946C8.33143 30.2235 10.4288 30.907 13.814 30.907H22.186C25.5712 30.907 27.6686 30.2235 28.946 28.946C30.2235 27.6686 30.907 25.5712 30.907 22.186V13.814C30.907 10.4288 30.2235 8.33143 28.946 7.05395C27.6686 5.77646 25.5712 5.09302 22.186 5.09302H13.814C10.4288 5.09302 8.33143 5.77646 7.05395 7.05395Z" fill="#4A5568"/>
<path fill-rule="evenodd" clip-rule="evenodd" d="M11.3566 10.9004C11.8539 10.4031 12.5365 10.2794 12.8812 10.6241L25.3465 23.0894C25.6912 23.4341 25.5675 24.1167 25.0702 24.614C24.5729 25.1113 23.8903 25.235 23.5456 24.8903L11.0803 12.425C10.7356 12.0803 10.8593 11.3977 11.3566 10.9004Z" fill="#4A5568"/>
<path fill-rule="evenodd" clip-rule="evenodd" d="M25.07 10.9003C25.5673 11.3976 25.691 12.0802 25.3463 12.4249L12.8811 24.8902C12.5364 25.2349 11.8538 25.1112 11.3565 24.6139C10.8592 24.1166 10.7355 23.434 11.0802 23.0893L23.5455 10.624C23.8902 10.2793 24.5727 10.403 25.07 10.9003Z" fill="#4A5568"/>
</svg>
